G04 EAGLE Gerber RS-274X export*
G75*
%MOMM*%
%FSLAX34Y34*%
%LPD*%
%INTop Copper*%
%IPPOS*%
%AMOC8*
5,1,8,0,0,1.08239X$1,22.5*%
G01*
G04 Define Apertures*
%ADD10R,1.200000X0.800000*%
%ADD11R,2.150000X1.300000*%
%ADD12R,1.930400X1.930400*%
%ADD13C,1.930400*%
%ADD14C,1.950000*%
%ADD15R,0.624800X1.223500*%
%ADD16C,0.600000*%
%ADD17R,1.031200X1.420200*%
%ADD18R,0.798700X0.973900*%
%ADD19R,0.660400X1.193800*%
%ADD20R,0.611800X0.911800*%
%ADD21R,1.530000X1.530000*%
%ADD22C,1.530000*%
%ADD23R,0.901700X0.508000*%
%ADD24R,0.970200X0.900000*%
%ADD25R,0.970200X0.932600*%
%ADD26R,0.970200X0.920900*%
%ADD27R,0.920900X0.970200*%
%ADD28R,1.000000X1.400000*%
%ADD29R,0.590000X1.260000*%
%ADD30R,0.973900X0.798700*%
%ADD31C,0.254000*%
%ADD32C,0.756400*%
D10*
X490378Y419100D03*
X490378Y431600D03*
D11*
X513328Y400100D03*
X513328Y450600D03*
D10*
X490378Y336550D03*
X490378Y349050D03*
D11*
X513328Y317550D03*
X513328Y368050D03*
D10*
X490378Y254000D03*
X490378Y266500D03*
D11*
X513328Y235000D03*
X513328Y285500D03*
D10*
X490378Y171450D03*
X490378Y183950D03*
D11*
X513328Y152450D03*
X513328Y202950D03*
D12*
X162560Y497840D03*
D13*
X127560Y497840D03*
X92560Y497840D03*
D12*
X381000Y497840D03*
D13*
X346000Y497840D03*
X311000Y497840D03*
D12*
X317500Y2540D03*
D13*
X352500Y2540D03*
X387500Y2540D03*
D12*
X93980Y2540D03*
D13*
X128980Y2540D03*
X163980Y2540D03*
D14*
X157380Y330200D03*
X137380Y390200D03*
X15160Y390200D03*
X15160Y270200D03*
X137380Y270200D03*
X383440Y330200D03*
X363440Y390200D03*
X241220Y390200D03*
X241220Y270200D03*
X363440Y270200D03*
X216000Y165100D03*
X236000Y105100D03*
X358220Y105100D03*
X358220Y225100D03*
X236000Y225100D03*
X-10060Y165100D03*
X9940Y105100D03*
X132160Y105100D03*
X132160Y225100D03*
X9940Y225100D03*
D15*
X215240Y503400D03*
X196240Y503400D03*
X205740Y482120D03*
X257200Y487200D03*
X276200Y487200D03*
X266700Y508480D03*
X264820Y-3020D03*
X283820Y-3020D03*
X274320Y18260D03*
X215240Y13180D03*
X196240Y13180D03*
X205740Y-8100D03*
D16*
X464960Y364490D02*
X473460Y364490D01*
X473460Y377190D02*
X464960Y377190D01*
X464960Y389890D02*
X473460Y389890D01*
X473460Y402590D02*
X464960Y402590D01*
X418960Y402590D02*
X410460Y402590D01*
X410460Y389890D02*
X418960Y389890D01*
X418960Y377190D02*
X410460Y377190D01*
X410460Y364490D02*
X418960Y364490D01*
X464960Y199390D02*
X473460Y199390D01*
X473460Y212090D02*
X464960Y212090D01*
X464960Y224790D02*
X473460Y224790D01*
X473460Y237490D02*
X464960Y237490D01*
X418960Y237490D02*
X410460Y237490D01*
X410460Y224790D02*
X418960Y224790D01*
X418960Y212090D02*
X410460Y212090D01*
X410460Y199390D02*
X418960Y199390D01*
D17*
X136195Y439420D03*
X117805Y439420D03*
D18*
X225528Y518160D03*
X241832Y518160D03*
X197588Y518160D03*
X213892Y518160D03*
D17*
X364795Y439420D03*
X346405Y439420D03*
D18*
X246912Y472440D03*
X230608Y472440D03*
X274852Y472440D03*
X258548Y472440D03*
D17*
X364795Y60960D03*
X346405Y60960D03*
D18*
X254532Y-17780D03*
X238228Y-17780D03*
X282057Y-17780D03*
X265753Y-17780D03*
D17*
X136195Y60960D03*
X117805Y60960D03*
D18*
X225528Y27940D03*
X241832Y27940D03*
X197588Y27940D03*
X213892Y27940D03*
D19*
X299974Y439420D03*
X335026Y439420D03*
X71374Y439420D03*
X106426Y439420D03*
D20*
X391040Y439420D03*
X376040Y439420D03*
X162440Y439420D03*
X147440Y439420D03*
D19*
X71374Y60960D03*
X106426Y60960D03*
X299974Y60960D03*
X335026Y60960D03*
D20*
X162440Y60476D03*
X147440Y60476D03*
X391040Y60960D03*
X376040Y60960D03*
D21*
X444500Y105215D03*
D22*
X444500Y75215D03*
D23*
X416242Y182882D03*
X416242Y173382D03*
X416242Y163882D03*
X442278Y163882D03*
X442278Y173382D03*
X442278Y182882D03*
D24*
X469900Y185798D03*
D25*
X469900Y170259D03*
D26*
X457200Y170054D03*
X457200Y185546D03*
D27*
X414719Y149860D03*
X430211Y149860D03*
D28*
X426720Y41480D03*
X436220Y19480D03*
X417220Y19480D03*
D29*
X441960Y2180D03*
X432460Y-17420D03*
X451460Y-17420D03*
D30*
X416560Y-13232D03*
X416560Y3072D03*
D31*
X71374Y60960D02*
X40640Y60960D01*
X9940Y91660D01*
X236000Y89120D02*
X236000Y105100D01*
X236000Y89120D02*
X264160Y60960D01*
X299974Y60960D01*
X71374Y439420D02*
X60960Y439420D01*
X55880Y434340D01*
X55880Y424180D01*
X89860Y390200D01*
X137380Y390200D01*
X289560Y439420D02*
X299974Y439420D01*
X289560Y439420D02*
X284480Y434340D01*
X284480Y426720D01*
X321000Y390200D01*
X363440Y390200D01*
X469210Y199390D02*
X469900Y198700D01*
X469900Y185798D01*
X416242Y197858D02*
X414710Y199390D01*
X416242Y197858D02*
X416242Y182882D01*
X457200Y199390D02*
X469210Y199390D01*
X457200Y199390D02*
X414710Y199390D01*
X414710Y364490D02*
X452120Y364490D01*
X469210Y364490D01*
X447040Y209550D02*
X457200Y199390D01*
X447040Y209550D02*
X447040Y254000D01*
X447040Y359410D01*
X452120Y364490D01*
X447040Y254000D02*
X411480Y254000D01*
X-22808Y236220D02*
X-22808Y154888D01*
X-22808Y236220D02*
X-12648Y246380D01*
X119380Y246380D01*
X187960Y246380D01*
X109220Y370840D02*
X89860Y390200D01*
X109220Y370840D02*
X109220Y256540D01*
X119380Y246380D01*
D32*
X187960Y246380D03*
X411480Y254000D03*
D31*
X9940Y105100D02*
X9940Y91660D01*
X9940Y105100D02*
X9940Y122140D01*
X-22808Y154888D01*
X215240Y503400D02*
X215240Y516812D01*
X213892Y518160D01*
X225528Y518160D01*
X459740Y419100D02*
X490378Y419100D01*
X459740Y419100D02*
X454660Y414020D01*
X454660Y381000D01*
X458470Y377190D01*
X469210Y377190D01*
X414710Y377190D02*
X402590Y377190D01*
X401320Y375920D01*
X401320Y259080D01*
X393292Y251052D01*
X213768Y251052D01*
X195580Y269240D01*
X195580Y452120D01*
X251460Y508000D01*
X251460Y515620D01*
X248920Y518160D01*
X241832Y518160D01*
X481330Y336550D02*
X490378Y336550D01*
X481330Y336550D02*
X480060Y337820D01*
X480060Y388620D01*
X478790Y389890D01*
X469210Y389890D01*
X490378Y431600D02*
X490378Y444342D01*
X490220Y444500D01*
D32*
X490220Y444500D03*
X490220Y360680D03*
D31*
X490378Y360522D01*
X490378Y349050D01*
X488950Y402590D02*
X469210Y402590D01*
X488950Y402590D02*
X490220Y401320D01*
D32*
X490220Y401320D03*
D31*
X401320Y60960D02*
X391040Y60960D01*
X177800Y439420D02*
X162440Y439420D01*
X162440Y60476D02*
X178284Y60476D01*
X197588Y14528D02*
X196240Y13180D01*
X196240Y26592D01*
X197588Y27940D01*
X283820Y-3020D02*
X283820Y-16017D01*
X282057Y-17780D01*
X196240Y503400D02*
X196240Y516812D01*
X197588Y518160D01*
X276200Y487200D02*
X276200Y473788D01*
X274852Y472440D01*
X414710Y407670D02*
X418520Y411480D01*
X414710Y407670D02*
X414710Y402590D01*
X418520Y411480D02*
X424180Y411480D01*
D32*
X424180Y411480D03*
D31*
X414710Y241990D02*
X414710Y237490D01*
X419100Y246380D02*
X424180Y246380D01*
X419100Y246380D02*
X414710Y241990D01*
D32*
X424180Y246380D03*
D31*
X430211Y160971D02*
X430211Y149860D01*
X430211Y160971D02*
X433122Y163882D01*
X442278Y163882D01*
X441960Y149860D02*
X430211Y149860D01*
D32*
X441960Y149860D03*
D31*
X416560Y-13232D02*
X406932Y-13232D01*
X401320Y-7620D01*
X401320Y35560D01*
X401320Y60960D01*
X401320Y62035D02*
X444500Y105215D01*
X401320Y62035D02*
X401320Y60960D01*
X283820Y9500D02*
X283820Y-3020D01*
X283820Y9500D02*
X302260Y27940D01*
X393700Y27940D01*
X401320Y35560D01*
X283820Y-3020D02*
X273180Y7620D01*
X269240Y7620D01*
X264160Y12700D01*
X264160Y22860D01*
D32*
X264160Y22860D03*
X190500Y48260D03*
D31*
X197588Y41172D01*
X197588Y27940D01*
X190500Y48260D02*
X178284Y60476D01*
X177800Y439420D02*
X185420Y447040D01*
D32*
X185420Y447040D03*
D31*
X391040Y439420D02*
X398780Y439420D01*
X401320Y436880D01*
X401320Y406400D01*
X405130Y402590D01*
X414710Y402590D01*
X274852Y452652D02*
X274852Y472440D01*
X274852Y452652D02*
X269240Y447040D01*
D32*
X269240Y447040D03*
D31*
X196240Y473100D02*
X196240Y503400D01*
X196240Y473100D02*
X195580Y472440D01*
D32*
X195580Y472440D03*
D31*
X257200Y473788D02*
X257200Y487200D01*
X257200Y473788D02*
X258548Y472440D01*
X246912Y472440D01*
X400050Y389890D02*
X414710Y389890D01*
X400050Y389890D02*
X396240Y386080D01*
X396240Y261620D01*
X389736Y255116D01*
X217324Y255116D01*
X200660Y271780D01*
X200660Y449580D01*
X223520Y472440D01*
X230608Y472440D01*
X264820Y-3020D02*
X264820Y-16847D01*
X265753Y-17780D01*
X254532Y-17780D01*
X459740Y254000D02*
X490378Y254000D01*
X459740Y254000D02*
X454660Y248920D01*
X454660Y215900D01*
X458470Y212090D01*
X469210Y212090D01*
X414710Y212090D02*
X405130Y212090D01*
X256540Y48260D02*
X200660Y104140D01*
X256540Y48260D02*
X256540Y5080D01*
X246380Y-5080D01*
X231140Y-5080D01*
X228600Y-7620D01*
X228600Y-15240D01*
X231140Y-17780D01*
X238228Y-17780D01*
X200660Y104140D02*
X200660Y222740D01*
X218104Y240184D01*
X377036Y240184D02*
X405130Y212090D01*
X377036Y240184D02*
X218104Y240184D01*
X481330Y171450D02*
X490378Y171450D01*
X481330Y171450D02*
X480060Y172720D01*
X480060Y223520D01*
X478790Y224790D01*
X469210Y224790D01*
X490378Y266500D02*
X490378Y279242D01*
X490220Y279400D01*
D32*
X490220Y279400D03*
X490220Y195580D03*
D31*
X490378Y195422D01*
X490378Y183950D01*
X488950Y237490D02*
X469210Y237490D01*
X488950Y237490D02*
X490220Y236220D01*
D32*
X490220Y236220D03*
D31*
X225528Y27940D02*
X213892Y27940D01*
X215240Y26592D02*
X215240Y13180D01*
X215240Y26592D02*
X213892Y27940D01*
X405130Y224790D02*
X414710Y224790D01*
X195580Y225947D02*
X195580Y101600D01*
X251460Y45720D01*
X248920Y27940D02*
X241832Y27940D01*
X248920Y27940D02*
X251460Y30480D01*
X251460Y45720D01*
X195580Y225947D02*
X213881Y244248D01*
X385672Y244248D02*
X405130Y224790D01*
X385672Y244248D02*
X213881Y244248D01*
X117805Y439420D02*
X106426Y439420D01*
X117805Y439420D02*
X117805Y423215D01*
X127000Y414020D01*
X144780Y414020D01*
X160020Y398780D01*
X160020Y375920D01*
X137380Y353280D01*
X137380Y270200D01*
X205740Y469900D02*
X205740Y482120D01*
X205740Y469900D02*
X193040Y457200D01*
X124460Y457200D01*
X117805Y450545D01*
X117805Y439420D01*
X335026Y439420D02*
X346405Y439420D01*
X346405Y420675D01*
X350520Y416560D01*
X370840Y416560D01*
X383540Y403860D01*
X383540Y381000D01*
X360900Y358360D01*
X363440Y270200D01*
X266700Y508480D02*
X266700Y518160D01*
X269240Y520700D01*
X281940Y520700D01*
X287020Y515620D01*
X287020Y459740D01*
X289560Y457200D01*
X327660Y457200D01*
X335026Y449834D01*
X335026Y439420D01*
X117805Y60960D02*
X106426Y60960D01*
X106426Y131154D01*
X9940Y225100D01*
X205740Y-8100D02*
X205740Y-20268D01*
X203200Y-22808D01*
X190448Y-22808D01*
X182880Y-15240D01*
X182880Y33020D01*
X172720Y43180D01*
X124460Y43180D01*
X117805Y49835D01*
X117805Y60960D01*
X335026Y60960D02*
X346405Y60960D01*
X335026Y60960D02*
X335026Y147574D01*
X257500Y225100D01*
X236000Y225100D01*
X274320Y30480D02*
X274320Y18260D01*
X274320Y30480D02*
X287020Y43180D01*
X330200Y43180D01*
X335026Y48006D01*
X335026Y60960D01*
X364795Y439420D02*
X376040Y439420D01*
X147440Y439420D02*
X136195Y439420D01*
X364795Y60960D02*
X376040Y60960D01*
X146956Y60960D02*
X136195Y60960D01*
X146956Y60960D02*
X147440Y60476D01*
X442278Y182882D02*
X454536Y182882D01*
X457200Y185546D01*
X457405Y170259D02*
X457200Y170054D01*
X457405Y170259D02*
X469900Y170259D01*
X457200Y170054D02*
X453872Y173382D01*
X442278Y173382D01*
X426720Y57435D02*
X426720Y41480D01*
X426720Y57435D02*
X444500Y75215D01*
X436220Y19480D02*
X441960Y13740D01*
X441960Y2180D01*
X414719Y149860D02*
X414719Y162359D01*
X416242Y163882D01*
X416242Y173382D01*
X436220Y39980D02*
X436220Y19480D01*
X447040Y129540D02*
X421640Y129540D01*
X414719Y136461D01*
X414719Y149860D01*
X461264Y65024D02*
X436220Y39980D01*
X461264Y115316D02*
X447040Y129540D01*
X461264Y115316D02*
X461264Y65024D01*
X417220Y19480D02*
X417220Y10160D01*
X417220Y3732D01*
X416560Y3072D01*
X432460Y1880D02*
X432460Y-17420D01*
X432460Y1880D02*
X424180Y10160D01*
X417220Y10160D01*
M02*
