G04 EAGLE Gerber RS-274X export*
G75*
%MOMM*%
%FSLAX34Y34*%
%LPD*%
%INBottom Copper*%
%IPPOS*%
%AMOC8*
5,1,8,0,0,1.08239X$1,22.5*%
G01*
G04 Define Apertures*
%ADD10R,1.930400X1.930400*%
%ADD11C,1.930400*%
%ADD12C,1.950000*%
%ADD13R,1.530000X1.530000*%
%ADD14C,1.530000*%
%ADD15C,0.609600*%
%ADD16C,0.254000*%
%ADD17C,0.756400*%
G36*
X476284Y-23877D02*
X475293Y-24078D01*
X421640Y-24078D01*
X420724Y-23907D01*
X419873Y-23362D01*
X419301Y-22529D01*
X419100Y-21538D01*
X419100Y246598D01*
X419286Y247552D01*
X419844Y248394D01*
X419854Y248405D01*
X421358Y252035D01*
X421358Y255965D01*
X419854Y259595D01*
X419844Y259606D01*
X419301Y260411D01*
X419100Y261402D01*
X419100Y521538D01*
X419271Y522454D01*
X419816Y523305D01*
X420649Y523877D01*
X421640Y524078D01*
X475293Y524078D01*
X476171Y523922D01*
X477031Y523390D01*
X477616Y522566D01*
X477833Y521579D01*
X477648Y520585D01*
X477089Y519742D01*
X475866Y518519D01*
X471895Y511641D01*
X469840Y503971D01*
X469840Y496029D01*
X471895Y488359D01*
X475866Y481481D01*
X481481Y475866D01*
X488359Y471895D01*
X496029Y469840D01*
X503971Y469840D01*
X511641Y471895D01*
X518519Y475866D01*
X519742Y477089D01*
X520473Y477599D01*
X521457Y477832D01*
X522454Y477662D01*
X523305Y477118D01*
X523877Y476284D01*
X524078Y475293D01*
X524078Y24707D01*
X523922Y23829D01*
X523390Y22969D01*
X522566Y22384D01*
X521579Y22167D01*
X520585Y22352D01*
X519742Y22911D01*
X518519Y24134D01*
X511641Y28105D01*
X503971Y30160D01*
X496029Y30160D01*
X488359Y28105D01*
X481481Y24134D01*
X475866Y18519D01*
X471895Y11641D01*
X469840Y3971D01*
X469840Y-3971D01*
X471895Y-11641D01*
X475866Y-18519D01*
X477089Y-19742D01*
X477599Y-20473D01*
X477832Y-21457D01*
X477662Y-22454D01*
X477118Y-23305D01*
X476284Y-23877D01*
G37*
%LPC*%
G36*
X488255Y350802D02*
X492185Y350802D01*
X495815Y352306D01*
X498594Y355085D01*
X500098Y358715D01*
X500098Y362645D01*
X498594Y366275D01*
X498330Y366540D01*
X497787Y367345D01*
X497586Y368336D01*
X497586Y393664D01*
X497772Y394618D01*
X498330Y395460D01*
X498594Y395725D01*
X500098Y399355D01*
X500098Y403285D01*
X498594Y406915D01*
X498330Y407180D01*
X497787Y407985D01*
X497586Y408976D01*
X497586Y436844D01*
X497772Y437798D01*
X498330Y438640D01*
X498594Y438905D01*
X500098Y442535D01*
X500098Y446465D01*
X498594Y450095D01*
X495815Y452874D01*
X492185Y454378D01*
X488255Y454378D01*
X484625Y452874D01*
X481846Y450095D01*
X480342Y446465D01*
X480342Y442535D01*
X481846Y438905D01*
X482110Y438640D01*
X482653Y437835D01*
X482854Y436844D01*
X482854Y408976D01*
X482668Y408022D01*
X482110Y407180D01*
X481846Y406915D01*
X480342Y403285D01*
X480342Y399355D01*
X481846Y395725D01*
X482110Y395460D01*
X482653Y394655D01*
X482854Y393664D01*
X482854Y368336D01*
X482668Y367382D01*
X482110Y366540D01*
X481846Y366275D01*
X480342Y362645D01*
X480342Y358715D01*
X481846Y355085D01*
X484625Y352306D01*
X488255Y350802D01*
G37*
G36*
X488255Y185702D02*
X492185Y185702D01*
X495815Y187206D01*
X498594Y189985D01*
X500098Y193615D01*
X500098Y197545D01*
X498594Y201175D01*
X498330Y201440D01*
X497787Y202245D01*
X497586Y203236D01*
X497586Y228564D01*
X497772Y229518D01*
X498330Y230360D01*
X498594Y230625D01*
X500098Y234255D01*
X500098Y238185D01*
X498594Y241815D01*
X498330Y242080D01*
X497787Y242885D01*
X497586Y243876D01*
X497586Y271744D01*
X497772Y272698D01*
X498330Y273540D01*
X498594Y273805D01*
X500098Y277435D01*
X500098Y281365D01*
X498594Y284995D01*
X495815Y287774D01*
X492185Y289278D01*
X488255Y289278D01*
X484625Y287774D01*
X481846Y284995D01*
X480342Y281365D01*
X480342Y277435D01*
X481846Y273805D01*
X482110Y273540D01*
X482653Y272735D01*
X482854Y271744D01*
X482854Y243876D01*
X482668Y242922D01*
X482110Y242080D01*
X481846Y241815D01*
X480342Y238185D01*
X480342Y234255D01*
X481846Y230625D01*
X482110Y230360D01*
X482653Y229555D01*
X482854Y228564D01*
X482854Y203236D01*
X482668Y202282D01*
X482110Y201440D01*
X481846Y201175D01*
X480342Y197545D01*
X480342Y193615D01*
X481846Y189985D01*
X484625Y187206D01*
X488255Y185702D01*
G37*
G36*
X434310Y105977D02*
X443738Y105977D01*
X443738Y115405D01*
X435798Y115405D01*
X434310Y113917D01*
X434310Y105977D01*
G37*
G36*
X445262Y105977D02*
X454690Y105977D01*
X454690Y113917D01*
X453202Y115405D01*
X445262Y115405D01*
X445262Y105977D01*
G37*
G36*
X484369Y65083D02*
X490991Y65083D01*
X497386Y66797D01*
X503120Y70107D01*
X507802Y74789D01*
X511112Y80523D01*
X512826Y86918D01*
X512826Y93540D01*
X511112Y99935D01*
X507802Y105669D01*
X503120Y110351D01*
X497386Y113661D01*
X490991Y115375D01*
X484369Y115375D01*
X477974Y113661D01*
X472240Y110351D01*
X467558Y105669D01*
X464248Y99935D01*
X462534Y93540D01*
X462534Y86918D01*
X464248Y80523D01*
X467558Y74789D01*
X472240Y70107D01*
X477974Y66797D01*
X484369Y65083D01*
G37*
G36*
X445262Y95025D02*
X453202Y95025D01*
X454690Y96513D01*
X454690Y104453D01*
X445262Y104453D01*
X445262Y95025D01*
G37*
G36*
X435798Y95025D02*
X443738Y95025D01*
X443738Y104453D01*
X434310Y104453D01*
X434310Y96513D01*
X435798Y95025D01*
G37*
G36*
X441766Y61469D02*
X447234Y61469D01*
X452286Y63562D01*
X456153Y67429D01*
X458246Y72481D01*
X458246Y77949D01*
X456153Y83001D01*
X452286Y86868D01*
X447234Y88961D01*
X441766Y88961D01*
X436714Y86868D01*
X432847Y83001D01*
X430754Y77949D01*
X430754Y72481D01*
X432847Y67429D01*
X436714Y63562D01*
X441766Y61469D01*
G37*
%LPD*%
D10*
X162560Y497840D03*
D11*
X127560Y497840D03*
X92560Y497840D03*
D10*
X381000Y497840D03*
D11*
X346000Y497840D03*
X311000Y497840D03*
D10*
X317500Y2540D03*
D11*
X352500Y2540D03*
X387500Y2540D03*
D10*
X93980Y2540D03*
D11*
X128980Y2540D03*
X163980Y2540D03*
D12*
X157380Y330200D03*
X137380Y390200D03*
X15160Y390200D03*
X15160Y270200D03*
X137380Y270200D03*
X383440Y330200D03*
X363440Y390200D03*
X241220Y390200D03*
X241220Y270200D03*
X363440Y270200D03*
X216000Y165100D03*
X236000Y105100D03*
X358220Y105100D03*
X358220Y225100D03*
X236000Y225100D03*
X-10060Y165100D03*
X9940Y105100D03*
X132160Y105100D03*
X132160Y225100D03*
X9940Y225100D03*
D13*
X444500Y105215D03*
D14*
X444500Y75215D03*
D15*
X92560Y422760D02*
X92560Y497840D01*
X92560Y422760D02*
X60000Y390200D01*
X15160Y390200D01*
X162560Y335380D02*
X162560Y497840D01*
X162560Y335380D02*
X157380Y330200D01*
D16*
X187960Y153140D02*
X236000Y105100D01*
X187960Y153140D02*
X187960Y246380D01*
D17*
X187960Y246380D03*
D16*
X304800Y334100D02*
X363440Y390200D01*
X304800Y334100D02*
X304800Y279400D01*
X271780Y246380D01*
X187960Y246380D01*
D17*
X411480Y254000D03*
D16*
X403860Y246380D01*
X271780Y246380D01*
D15*
X127560Y432360D02*
X127560Y497840D01*
X127560Y432360D02*
X15160Y319960D01*
X15160Y270200D01*
D17*
X490220Y444500D03*
D16*
X490220Y401320D01*
D17*
X490220Y360680D03*
D16*
X490220Y401320D01*
D17*
X490220Y401320D03*
X424180Y411480D03*
X424180Y246380D03*
X441960Y149860D03*
X264160Y22860D03*
D16*
X215900Y22860D01*
X190500Y48260D01*
D17*
X190500Y48260D03*
X185420Y447040D03*
X269240Y447040D03*
D16*
X185420Y447040D01*
D17*
X195580Y472440D03*
D16*
X195580Y467360D01*
X185420Y457200D01*
X185420Y447040D01*
X269240Y447040D02*
X292100Y469900D01*
X292100Y510540D01*
X302260Y520700D01*
X393700Y520700D01*
X424180Y490220D01*
X424180Y411480D01*
D15*
X288600Y390200D02*
X241220Y390200D01*
X288600Y390200D02*
X311000Y412600D01*
X311000Y497840D01*
X381000Y497840D02*
X381000Y330300D01*
X383440Y330200D01*
X346000Y422200D02*
X346000Y497840D01*
X346000Y422200D02*
X238680Y314880D01*
X241220Y270200D01*
X387500Y75820D02*
X387500Y2540D01*
X387500Y75820D02*
X358220Y105100D01*
X279400Y40640D02*
X317500Y2540D01*
X279400Y40640D02*
X279400Y127000D01*
X241300Y165100D01*
X216000Y165100D01*
X352500Y3100D02*
X352500Y2540D01*
X352500Y3100D02*
X330200Y25400D01*
X330200Y197080D01*
X358220Y225100D01*
D17*
X490220Y279400D03*
D16*
X490220Y236220D01*
D17*
X490220Y195580D03*
D16*
X490220Y236220D01*
D17*
X490220Y236220D03*
D15*
X163980Y75820D02*
X163980Y2540D01*
X163980Y75820D02*
X132160Y105100D01*
X50800Y45720D02*
X93980Y2540D01*
X50800Y45720D02*
X50800Y127000D01*
X12700Y165100D01*
X-10060Y165100D01*
X101600Y29920D02*
X128980Y2540D01*
X101600Y29920D02*
X101600Y192000D01*
X132160Y225100D01*
M02*
