M48
;GenerationSoftware,Autodesk,EAGLE,9.7.0*%
;CreationDate,2024-04-06T18:57:39Z*%
FMAT,2
ICI,OFF
METRIC,TZ,000.000
T6C0.350
T5C1.020
T4C1.250
T3C1.300
T2C2.997
T1C4.000
%
G90
M71
T1
X0Y50000
X50000Y0
X50000Y50000
X0Y0
T2
X48768Y9023
T3
X-1006Y16510
X23600Y22510
X35822Y22510
X35822Y10510
X23600Y10510
X21600Y16510
X36344Y27020
X24122Y27020
X24122Y39020
X36344Y39020
X38344Y33020
X994Y10510
X13216Y10510
X1516Y27020
X13216Y22510
X994Y22510
X1516Y39020
X13738Y39020
X15738Y33020
X13738Y27020
T4
X34600Y49784
X31100Y49784
X38100Y49784
X35250Y254
X38750Y254
X9398Y254
X12898Y254
X16398Y254
X9256Y49784
X12756Y49784
X16256Y49784
X31750Y254
T5
X44450Y7521
X44450Y10522
T6
X49022Y23622
X49022Y19558
X49022Y27940
X19558Y47244
X26924Y44704
X18542Y44704
X19050Y4826
X26416Y2286
X44196Y14986
X42418Y24638
X42418Y41148
X49022Y40132
X49022Y36068
X49022Y44450
X41148Y25400
X18796Y24638
M30