G04 EAGLE Gerber RS-274X export*
G75*
%MOMM*%
%FSLAX34Y34*%
%LPD*%
%INSolderpaste Top*%
%IPPOS*%
%AMOC8*
5,1,8,0,0,1.08239X$1,22.5*%
G01*
G04 Define Apertures*
%ADD10R,1.200000X0.800000*%
%ADD11R,2.150000X1.300000*%
%ADD12R,0.624800X1.223500*%
%ADD13C,0.600000*%
%ADD14R,1.031200X1.420200*%
%ADD15R,0.798700X0.973900*%
%ADD16R,0.660400X1.193800*%
%ADD17R,0.611800X0.911800*%
%ADD18R,0.901700X0.508000*%
%ADD19R,0.970200X0.900000*%
%ADD20R,0.970200X0.932600*%
%ADD21R,0.970200X0.920900*%
%ADD22R,0.920900X0.970200*%
%ADD23R,1.000000X1.400000*%
%ADD24R,0.590000X1.260000*%
%ADD25R,0.973900X0.798700*%
D10*
X490378Y419100D03*
X490378Y431600D03*
D11*
X513328Y400100D03*
X513328Y450600D03*
D10*
X490378Y336550D03*
X490378Y349050D03*
D11*
X513328Y317550D03*
X513328Y368050D03*
D10*
X490378Y254000D03*
X490378Y266500D03*
D11*
X513328Y235000D03*
X513328Y285500D03*
D10*
X490378Y171450D03*
X490378Y183950D03*
D11*
X513328Y152450D03*
X513328Y202950D03*
D12*
X215240Y503400D03*
X196240Y503400D03*
X205740Y482120D03*
X257200Y487200D03*
X276200Y487200D03*
X266700Y508480D03*
X264820Y-3020D03*
X283820Y-3020D03*
X274320Y18260D03*
X215240Y13180D03*
X196240Y13180D03*
X205740Y-8100D03*
D13*
X464960Y364490D02*
X473460Y364490D01*
X473460Y377190D02*
X464960Y377190D01*
X464960Y389890D02*
X473460Y389890D01*
X473460Y402590D02*
X464960Y402590D01*
X418960Y402590D02*
X410460Y402590D01*
X410460Y389890D02*
X418960Y389890D01*
X418960Y377190D02*
X410460Y377190D01*
X410460Y364490D02*
X418960Y364490D01*
X464960Y199390D02*
X473460Y199390D01*
X473460Y212090D02*
X464960Y212090D01*
X464960Y224790D02*
X473460Y224790D01*
X473460Y237490D02*
X464960Y237490D01*
X418960Y237490D02*
X410460Y237490D01*
X410460Y224790D02*
X418960Y224790D01*
X418960Y212090D02*
X410460Y212090D01*
X410460Y199390D02*
X418960Y199390D01*
D14*
X136195Y439420D03*
X117805Y439420D03*
D15*
X225528Y518160D03*
X241832Y518160D03*
X197588Y518160D03*
X213892Y518160D03*
D14*
X364795Y439420D03*
X346405Y439420D03*
D15*
X246912Y472440D03*
X230608Y472440D03*
X274852Y472440D03*
X258548Y472440D03*
D14*
X364795Y60960D03*
X346405Y60960D03*
D15*
X254532Y-17780D03*
X238228Y-17780D03*
X282057Y-17780D03*
X265753Y-17780D03*
D14*
X136195Y60960D03*
X117805Y60960D03*
D15*
X225528Y27940D03*
X241832Y27940D03*
X197588Y27940D03*
X213892Y27940D03*
D16*
X299974Y439420D03*
X335026Y439420D03*
X71374Y439420D03*
X106426Y439420D03*
D17*
X391040Y439420D03*
X376040Y439420D03*
X162440Y439420D03*
X147440Y439420D03*
D16*
X71374Y60960D03*
X106426Y60960D03*
X299974Y60960D03*
X335026Y60960D03*
D17*
X162440Y60476D03*
X147440Y60476D03*
X391040Y60960D03*
X376040Y60960D03*
D18*
X416242Y182882D03*
X416242Y173382D03*
X416242Y163882D03*
X442278Y163882D03*
X442278Y173382D03*
X442278Y182882D03*
D19*
X469900Y185798D03*
D20*
X469900Y170259D03*
D21*
X457200Y170054D03*
X457200Y185546D03*
D22*
X414719Y149860D03*
X430211Y149860D03*
D23*
X426720Y41480D03*
X436220Y19480D03*
X417220Y19480D03*
D24*
X441960Y2180D03*
X432460Y-17420D03*
X451460Y-17420D03*
D25*
X416560Y-13232D03*
X416560Y3072D03*
M02*
